<mxfile host="app.diagrams.net" modified="2023-05-03T20:01:07.027Z" agent="Mozilla/5.0 (X11; Linux x86_64) AppleWebKit/537.36 (KHTML, like Gecko) Chrome/110.0.0.0 YaBrowser/23.3.1.906 (beta) Yowser/2.5 Safari/537.36" version="21.2.3" etag="Mou7rCXVNPcO573sjael" type="github">
  <diagram name="Страница 1" id="sWQtE-qKcqzZlM-_GXvW">
    <mxGraphModel>
      <root>
        <mxCell id="0" />
        <mxCell id="1" parent="0" />
      </root>
    </mxGraphModel>
  </diagram>
</mxfile>
